# xmcd
#
# Track frame offsets:
#	182
#	11157
#	23257
#	30157
#	38917
#	50812
#	59455
#	69285
#	80450
#	90867
#	101530
#	112340
#	122817
#	133312
#
# Disc length: 1891 seconds
#
# Revision: 1
# Processed by: cddbd v1.5.1PL2 Copyright (c) Steve Scherf et al.
# Submitted via: EasyCDDAExtractor 6.0.0.1
#
DISCID=b207610e
DTITLE=Waylon Jennings - Country Music CM007
DYEAR=1999
DGENRE=Country
TTITLE0=Sally Was A Good Old Girl
TTITLE1=Don't Think Twice, It's Alright
TTITLE2=It's So Easy
TTITLE3=Love's Gonna Live Here
TTITLE4=Crying
TTITLE5=Abilene
TTITLE6=When Sin Stops
TTITLE7=Blig Mamou
TTITLE8=White Lightning
TTITLE9=Burning Memories
TTITLE10=Dream Baby
TTITLE11=Money (That's What I Wan't)
TTITLE12=Lorena
TTITLE13=Jole Blond
EXTD=
EXTT0=
EXTT1=
EXTT2=
EXTT3=
EXTT4=
EXTT5=
EXTT6=
EXTT7=
EXTT8=
EXTT9=
EXTT10=
EXTT11=
EXTT12=
EXTT13=
PLAYORDER=
